<svg width="56" height="55" viewBox="0 0 56 55" fill="none" xmlns="http://www.w3.org/2000/svg">
<rect x="0.799805" y="0.200012" width="54.6" height="54.6" rx="27.3" fill="url(#paint0_linear_469_402)"/>
<path d="M36.6235 8.03903H19.5758C13.545 8.03903 8.63867 12.9454 8.63867 18.9762V36.0238C8.63867 42.0546 13.545 46.961 19.5758 46.961H36.6235C42.6542 46.961 47.5606 42.0546 47.5606 36.0238V18.9762C47.5606 12.9454 42.6542 8.03903 36.6235 8.03903ZM44.1687 22.5919H41.59C41.339 22.5919 41.0957 22.6733 40.8955 22.8251L39.0046 24.2565C38.8044 24.4074 38.5611 24.4897 38.3101 24.4897H35.4092C35.2362 24.4897 35.0954 24.6305 35.0954 24.8034V25.3631C35.0954 25.5361 35.2362 25.6769 35.4092 25.6769H38.6662C38.9164 25.6769 39.1606 25.5946 39.3599 25.4437L41.2517 24.0123C41.451 23.8605 41.6952 23.7791 41.9453 23.7791H44.1687V27.288H35.538C35.2938 27.288 35.0954 27.4864 35.0954 27.7306V28.2021C35.0954 28.4463 35.2938 28.6448 35.538 28.6448H44.1687V32.4606H41.9453C41.6952 32.4606 41.451 32.3784 41.2517 32.2274L39.3599 30.7961C39.1606 30.6443 38.9164 30.5629 38.6662 30.5629H35.4092C35.2362 30.5629 35.0954 30.7028 35.0954 30.8766V31.4363C35.0954 31.6093 35.2362 31.75 35.4092 31.75H38.3101C38.5611 31.75 38.8044 31.8314 39.0046 31.9832L40.8955 33.4146C41.0957 33.5655 41.339 33.6478 41.59 33.6478H44.1687V36.0238C44.1687 40.184 40.7836 43.5691 36.6235 43.5691H29.0748V38.3311C29.0748 38.1327 28.9145 37.9725 28.7161 37.9725H28.0767C27.8783 37.9725 27.7181 38.1327 27.7181 38.3311V43.5691H19.5758C15.4157 43.5691 12.0306 40.184 12.0306 36.0238V33.6478H14.6092C14.8602 33.6478 15.1036 33.5655 15.3037 33.4146L17.1947 31.9832C17.3948 31.8314 17.6382 31.75 17.8892 31.75H20.7901C20.9631 31.75 21.1039 31.6093 21.1039 31.4363V30.8766C21.1039 30.7028 20.9631 30.5629 20.7901 30.5629H17.5331C17.2829 30.5629 17.0387 30.6443 16.8394 30.7961L14.9476 32.2274C14.7483 32.3784 14.5041 32.4606 14.2539 32.4606H12.0306V28.8144H20.6612C20.9054 28.8144 21.1039 28.6159 21.1039 28.3717V27.9002C21.1039 27.656 20.9054 27.4576 20.6612 27.4576H12.0306V23.7791H14.2539C14.5041 23.7791 14.7483 23.8605 14.9476 24.0123L16.8394 25.4437C17.0387 25.5946 17.2829 25.6769 17.5331 25.6769H20.7901C20.9631 25.6769 21.1039 25.5361 21.1039 25.3631V24.8034C21.1039 24.6305 20.9631 24.4897 20.7901 24.4897H17.8892C17.6382 24.4897 17.3948 24.4074 17.1947 24.2565L15.3037 22.8251C15.1036 22.6733 14.8602 22.5919 14.6092 22.5919H12.0306V18.9762C12.0306 14.816 15.4157 11.4309 19.5758 11.4309H27.8181C27.8079 11.464 27.8028 11.4988 27.8028 11.5352V16.584C27.8028 16.7825 27.9631 16.9427 28.1615 16.9427H28.8009C28.9993 16.9427 29.1596 16.7825 29.1596 16.584V11.5352C29.1596 11.4988 29.1545 11.464 29.1443 11.4309H36.6235C40.7836 11.4309 44.1687 14.816 44.1687 18.9762V22.5919Z" fill="white"/>
<path d="M32.9755 14.738L22.291 29.6623H28.0572L23.9022 41.2795L34.7562 26.7792L28.5236 26.7572L32.9755 14.738Z" fill="white"/>
<path d="M39.8022 36.1069C39.3409 36.1069 38.9085 36.2324 38.5379 36.4512L33.8537 32.096C33.59 31.8509 33.177 31.8662 32.932 32.1299L32.8133 32.2571C32.5682 32.5217 32.5826 32.9338 32.8472 33.1797L37.5399 37.5425C37.3864 37.8656 37.3007 38.2268 37.3007 38.6084C37.3007 39.9881 38.4226 41.1099 39.8022 41.1099C41.1819 41.1099 42.3038 39.9881 42.3038 38.6084C42.3038 37.2287 41.1819 36.1069 39.8022 36.1069ZM39.8022 39.7532C39.1714 39.7532 38.6575 39.2393 38.6575 38.6084C38.6575 37.9775 39.1714 37.4636 39.8022 37.4636C40.4331 37.4636 40.947 37.9775 40.947 38.6084C40.947 39.2393 40.4331 39.7532 39.8022 39.7532Z" fill="white"/>
<path d="M14.4062 38.4388C14.4062 39.8185 15.5281 40.9404 16.9078 40.9404C18.2874 40.9404 19.4093 39.8185 19.4093 38.4388C19.4093 38.0573 19.3236 37.696 19.1702 37.3729L23.8628 33.0101C24.1274 32.7642 24.1418 32.3521 23.8968 32.0875L23.778 31.9603C23.533 31.6966 23.12 31.6814 22.8563 31.9264L18.1721 36.2816C17.8015 36.0628 17.3691 35.9373 16.9078 35.9373C15.5281 35.9373 14.4062 37.0592 14.4062 38.4388ZM15.763 38.4388C15.763 37.808 16.2769 37.2941 16.9078 37.2941C17.5387 37.2941 18.0525 37.808 18.0525 38.4388C18.0525 39.0697 17.5387 39.5836 16.9078 39.5836C16.2769 39.5836 15.763 39.0697 15.763 38.4388Z" fill="white"/>
<path d="M17.0767 20.3041C17.538 20.3041 17.9705 20.1786 18.341 19.9598L23.0252 24.315C23.289 24.5601 23.7019 24.5448 23.947 24.2811L24.0657 24.1539C24.3108 23.8893 24.2964 23.4772 24.0318 23.2313L19.3391 18.8685C19.4926 18.5454 19.5782 18.1842 19.5782 17.8026C19.5782 16.423 18.4564 15.3011 17.0767 15.3011C15.6971 15.3011 14.5752 16.423 14.5752 17.8026C14.5752 19.1823 15.6971 20.3041 17.0767 20.3041ZM17.0767 16.6578C17.7076 16.6578 18.2215 17.1717 18.2215 17.8026C18.2215 18.4335 17.7076 18.9474 17.0767 18.9474C16.4458 18.9474 15.932 18.4335 15.932 17.8026C15.932 17.1717 16.4458 16.6578 17.0767 16.6578Z" fill="white"/>
<path d="M42.3038 17.5482C42.3038 16.1686 41.1819 15.0467 39.8022 15.0467C38.4226 15.0467 37.3007 16.1686 37.3007 17.5482C37.3007 17.9298 37.3864 18.291 37.5399 18.6141L32.8472 22.9769C32.5826 23.2228 32.5682 23.635 32.8133 23.8995L32.932 24.0267C33.177 24.2904 33.59 24.3057 33.8537 24.0606L38.5379 19.7054C38.9085 19.9242 39.3409 20.0497 39.8022 20.0497C41.1819 20.0497 42.3038 18.9279 42.3038 17.5482ZM40.947 17.5482C40.947 18.1791 40.4331 18.693 39.8022 18.693C39.1714 18.693 38.6575 18.1791 38.6575 17.5482C38.6575 16.9173 39.1714 16.4034 39.8022 16.4034C40.4331 16.4034 40.947 16.9173 40.947 17.5482Z" fill="white"/>
<path d="M31.5332 35.1089V41.2601C31.5332 41.4582 31.6938 41.6188 31.8919 41.6188H32.5313C32.7294 41.6188 32.89 41.4582 32.89 41.2601V35.1089C32.89 34.9108 32.7294 34.7502 32.5313 34.7502H31.8919C31.6938 34.7502 31.5332 34.9108 31.5332 35.1089Z" fill="white"/>
<path d="M23.3936 13.9944V20.1455C23.3936 20.3436 23.5541 20.5042 23.7522 20.5042H24.3916C24.5897 20.5042 24.7503 20.3436 24.7503 20.1455V13.9944C24.7503 13.7963 24.5897 13.6357 24.3916 13.6357H23.7522C23.5541 13.6357 23.3936 13.7963 23.3936 13.9944Z" fill="white"/>
<defs>
<linearGradient id="paint0_linear_469_402" x1="28.0998" y1="0.200012" x2="28.0998" y2="54.8" gradientUnits="userSpaceOnUse">
<stop stop-color="#8419D1"/>
<stop offset="0.384615" stop-color="#8419D1"/>
<stop offset="1" stop-color="#E51ACB"/>
</linearGradient>
</defs>
</svg>
